<svg width="156" height="48" viewBox="0 0 156 48" fill="none" xmlns="http://www.w3.org/2000/svg">
<mask id="mask0" mask-type="alpha" maskUnits="userSpaceOnUse" x="0" y="0" width="156" height="48">
<path d="M156 0H0V48H156V0Z" fill="white"/>
</mask>
<g mask="url(#mask0)">
<mask id="mask1" mask-type="alpha" maskUnits="userSpaceOnUse" x="17" y="12" width="25" height="24">
<path d="M41.25 12H17.25V36H41.25V12Z" fill="white"/>
</mask>
<g mask="url(#mask1)">
<path d="M21.091 14.2474L37.409 30.5654C38.2877 31.4441 38.2877 32.8687 37.409 33.7474C36.9871 34.1693 36.4148 34.4064 35.818 34.4064H19.5C18.2574 34.4064 17.25 33.399 17.25 32.1564V15.8384C17.25 14.5957 18.2574 13.5884 19.5 13.5884C20.0967 13.5884 20.669 13.8254 21.091 14.2474Z" fill="#A0D674"/>
<g style="mix-blend-mode:multiply">
<path d="M21.091 33.7531L37.409 17.4351C38.2877 16.5564 38.2877 15.1318 37.409 14.2531C36.9871 13.8311 36.4148 13.5941 35.818 13.5941L19.5 13.5941C18.2574 13.5941 17.25 14.6014 17.25 15.8441V32.1621C17.25 33.4047 18.2574 34.4121 19.5 34.4121C20.0967 34.4121 20.669 34.1751 21.091 33.7531Z" fill="#3CB5B5"/>
</g>
<path d="M41.25 19.9663V28.0343C41.25 28.6556 40.7463 29.1593 40.125 29.1593C39.8266 29.1593 39.5404 29.0408 39.3295 28.8298L35.2954 24.7958C34.8561 24.3565 34.8561 23.6442 35.2954 23.2048L39.3295 19.1708C39.7688 18.7315 40.4811 18.7315 40.9204 19.1708C41.1314 19.3818 41.25 19.6679 41.25 19.9663Z" fill="#F97060"/>
</g>
<path fill-rule="evenodd" clip-rule="evenodd" d="M56.8383 25.7674L54.8887 27.9159C54.7868 28.0284 54.7301 28.1752 54.7301 28.3268V33.3498C54.7301 33.6877 54.4566 33.9612 54.1187 33.9612H51.2296C50.8917 33.9612 50.6182 33.6877 50.6182 33.3498V13.4454C50.6182 13.1079 50.8917 12.834 51.2296 12.834H54.1187C54.4566 12.834 54.7301 13.1079 54.7301 13.4454V20.7856C54.7301 21.3485 55.4267 21.6122 55.7997 21.1908L63.0107 13.0402C63.1265 12.9094 63.2932 12.834 63.4684 12.834H67.2042C67.7349 12.834 68.0137 13.4641 67.6566 13.8571L60.5438 21.6787C60.3506 21.8906 60.3311 22.2086 60.497 22.443L67.9635 32.9968C68.2501 33.4019 67.9607 33.9612 67.4646 33.9612H63.8092C63.6099 33.9612 63.4228 33.8642 63.3082 33.7007L57.7917 25.8273C57.5667 25.5061 57.102 25.4768 56.8383 25.7674Z" fill="#33495D"/>
<path fill-rule="evenodd" clip-rule="evenodd" d="M77.8891 24.9624C78.2861 24.9624 78.5898 24.587 78.4846 24.2043C78.1659 23.0446 77.1901 22.0721 75.3228 22.0721C73.6899 22.0721 72.6399 23.0495 72.2319 24.1232C72.0782 24.5275 72.3693 24.9624 72.8017 24.9624H77.8891ZM81.6778 29.5766C82.0227 29.6789 82.211 30.0575 82.0744 30.3897C81.1504 32.634 78.9232 34.4088 75.6208 34.4088C71.5981 34.4088 68.0519 31.518 68.0519 26.5717C68.0519 21.8935 71.5088 18.854 75.2633 18.854C79.7926 18.854 82.5045 21.7439 82.5045 26.4522C82.5045 26.6732 82.4951 26.8986 82.4841 27.095C82.4657 27.4195 82.1987 27.6738 81.8735 27.6738H72.6709C72.2719 27.6738 71.9702 28.0533 72.0766 28.4377C72.5005 29.9687 73.9536 31.0118 75.6509 31.0118C77.2667 31.0118 78.2445 30.3045 78.783 29.2501C78.9191 28.9835 79.2187 28.8453 79.5053 28.9305L81.6778 29.5766Z" fill="#33495D"/>
<path fill-rule="evenodd" clip-rule="evenodd" d="M86.8561 12C88.2269 12 89.2997 13.1026 89.2997 14.4734C89.2997 15.814 88.2269 16.8868 86.8561 16.8868C85.5151 16.8868 84.4129 15.814 84.4129 14.4734C84.4129 13.1026 85.5151 12 86.8561 12ZM85.5008 19.3007H88.2412C88.5787 19.3007 88.8526 19.5742 88.8526 19.9121V35.3613C88.8526 37.9439 86.773 40.092 84.1908 40.0696C83.4893 40.0639 82.9019 39.9721 82.5094 39.8825C82.2289 39.8185 82.0288 39.5727 82.0288 39.2849V37.1613C82.0288 36.7977 82.3423 36.5144 82.7038 36.5539C82.8644 36.5719 83.0458 36.5837 83.2508 36.5837C84.4427 36.5837 84.8894 35.9279 84.8894 34.8554V19.9121C84.8894 19.5742 85.1633 19.3007 85.5008 19.3007Z" fill="#33495D"/>
<path fill-rule="evenodd" clip-rule="evenodd" d="M100.534 28.0316V27.9758C100.534 27.6603 100.253 27.419 99.9411 27.4667L97.2264 27.8825C96.2131 28.0316 95.4089 28.5978 95.4089 29.7301C95.4089 30.5943 96.0346 31.4287 97.3157 31.4287C98.9844 31.4287 100.534 30.624 100.534 28.0316ZM95.8259 25.5285L99.4316 24.9921C100.266 24.8731 100.534 24.4561 100.534 23.949C100.534 22.9064 99.7291 22.0422 98.0608 22.0422C96.5791 22.0422 95.6673 22.8522 95.3616 23.8907C95.2728 24.192 94.9499 24.3603 94.6426 24.2955L92.3225 23.8035C91.9891 23.733 91.769 23.4024 91.8501 23.0715C92.3685 20.9604 94.4437 18.8535 98.0306 18.8535C102.679 18.8535 104.408 21.4761 104.408 24.4259V31.6373C104.408 32.1489 104.447 32.777 104.499 33.291C104.535 33.6509 104.252 33.9615 103.891 33.9615H101.39C101.13 33.9615 100.909 33.7695 100.879 33.5115C100.877 33.4944 100.875 33.4773 100.873 33.4598C100.825 33.0338 100.324 32.8532 100.005 33.139C99.198 33.86 98.038 34.3785 96.4813 34.3785C93.3525 34.3785 91.4453 32.263 91.4453 29.9686C91.4453 27.346 93.3823 25.886 95.8259 25.5285Z" fill="#33495D"/>
<mask id="mask2" mask-type="alpha" maskUnits="userSpaceOnUse" x="107" y="19" width="10" height="15">
<path d="M116.596 33.9615V19.1816H107.656V33.9615H116.596Z" fill="white"/>
</mask>
<g mask="url(#mask2)">
<path fill-rule="evenodd" clip-rule="evenodd" d="M116.596 22.5293C116.596 22.8835 116.295 23.1705 115.942 23.1387C115.754 23.1216 115.576 23.1151 115.404 23.1151C113.378 23.1151 111.62 24.0982 111.62 27.2568V33.3501C111.62 33.6876 111.346 33.9615 111.008 33.9615H108.268C107.93 33.9615 107.656 33.6876 107.656 33.3501V19.846C107.656 19.5448 107.901 19.3007 108.202 19.3007H110.955C111.256 19.3007 111.501 19.5448 111.501 19.846V19.9724C111.501 20.4065 112.015 20.6148 112.333 20.3197C113.34 19.3854 114.727 19.1816 115.672 19.1816C115.795 19.1816 115.913 19.1857 116.029 19.1922C116.349 19.211 116.596 19.482 116.596 19.8028V22.5293Z" fill="#33495D"/>
</g>
<path fill-rule="evenodd" clip-rule="evenodd" d="M116.69 32.5115C116.69 32.2694 116.736 32.0444 116.826 31.8357C116.917 31.627 117.042 31.4456 117.2 31.2908C117.358 31.1359 117.545 31.0132 117.76 30.9223C117.975 30.8314 118.21 30.7861 118.466 30.7861C118.715 30.7861 118.947 30.8314 119.162 30.9223C119.378 31.0132 119.566 31.1359 119.727 31.2908C119.889 31.4456 120.015 31.627 120.106 31.8357C120.197 32.0444 120.242 32.2694 120.242 32.5115C120.242 32.7537 120.197 32.9807 120.106 33.1927C120.015 33.4046 119.889 33.588 119.727 33.7429C119.566 33.8974 119.378 34.0185 119.162 34.1057C118.947 34.1933 118.715 34.2369 118.466 34.2369C118.21 34.2369 117.975 34.1933 117.76 34.1057C117.545 34.0185 117.358 33.8974 117.2 33.7429C117.042 33.588 116.917 33.4046 116.826 33.1927C116.736 32.9807 116.69 32.7537 116.69 32.5115Z" fill="#33495D"/>
<mask id="mask3" mask-type="alpha" maskUnits="userSpaceOnUse" x="122" y="18" width="5" height="17">
<path d="M122.516 18.9297H126.29V34.0958H122.516V18.9297Z" fill="white"/>
</mask>
<g mask="url(#mask3)">
<path fill-rule="evenodd" clip-rule="evenodd" d="M125.152 23.6319C125.601 23.6319 125.967 23.9987 125.967 24.4471V33.2808C125.967 33.7287 125.601 34.096 125.152 34.096H123.654C123.206 34.096 122.839 33.7287 122.839 33.2808V24.4471C122.839 23.9987 123.206 23.6319 123.654 23.6319H125.152ZM126.29 20.7664C126.29 21.015 126.24 21.249 126.139 21.4675C126.038 21.6863 125.9 21.8779 125.725 22.0426C125.55 22.2077 125.347 22.3385 125.115 22.4359C124.883 22.5338 124.635 22.5827 124.373 22.5827C124.117 22.5827 123.878 22.5338 123.657 22.4359C123.435 22.3385 123.238 22.2077 123.067 22.0426C122.895 21.8779 122.76 21.6863 122.663 21.4675C122.565 21.249 122.516 21.015 122.516 20.7664C122.516 20.5108 122.565 20.2719 122.663 20.0498C122.76 19.8276 122.895 19.6324 123.067 19.4645C123.238 19.2961 123.435 19.1653 123.657 19.0711C123.878 18.9766 124.117 18.9297 124.373 18.9297C124.635 18.9297 124.883 18.9766 125.115 19.0711C125.347 19.1653 125.55 19.2961 125.725 19.4645C125.9 19.6324 126.038 19.8276 126.139 20.0498C126.24 20.2719 126.29 20.5108 126.29 20.7664Z" fill="#33495D"/>
</g>
<mask id="mask4" mask-type="alpha" maskUnits="userSpaceOnUse" x="128" y="18" width="11" height="17">
<path d="M128.473 18.9897H138.459V34.2571H128.473V18.9897Z" fill="white"/>
</mask>
<g mask="url(#mask4)">
<path fill-rule="evenodd" clip-rule="evenodd" d="M135.543 27.1778C135.501 26.7311 135.208 26.1694 134.894 25.9293L134.568 25.8058C134.292 25.7014 134.003 25.7304 133.701 25.7304C133.411 25.7304 133.145 25.7878 132.903 25.902C132.661 26.0165 132.451 26.1999 132.273 26.4522C132.094 26.7041 131.955 27.0323 131.854 27.4358C131.753 27.8393 131.702 28.3272 131.702 28.8991C131.702 29.4506 131.743 29.9149 131.824 30.2915C131.904 30.6681 132.017 30.9726 132.161 31.2046C132.306 31.4365 132.479 31.6032 132.682 31.7039C132.883 31.8054 133.108 31.8555 133.357 31.8555C133.586 31.8555 133.793 31.8339 133.978 31.7899C134.163 31.7463 134.332 31.6839 134.487 31.6032C134.642 31.5225 134.788 31.4198 134.926 31.2955C135.064 31.1711 135.309 30.9029 135.383 30.7056C135.782 29.6532 135.543 27.1778 135.543 27.1778ZM137.648 18.9897C138.096 18.9897 138.463 19.357 138.463 19.805V33.2805C138.463 33.7285 138.096 34.0978 137.648 34.0994L137.341 34.101C136.893 34.1031 136.244 34.0965 135.898 34.0851L135.79 33.5948L135.738 33.3559C135.616 33.0355 135.324 32.9642 135.09 33.1978L134.861 33.3791C134.632 33.5605 134.385 33.7171 134.119 33.8483C133.853 33.9796 133.567 34.0806 133.261 34.1508C132.955 34.2217 132.624 34.2571 132.267 34.2571C131.723 34.2571 131.218 34.1357 130.754 33.894C130.29 33.6518 129.889 33.3017 129.553 32.8444C129.217 32.387 128.953 31.827 128.761 31.1642C128.57 30.5018 128.473 29.7465 128.473 28.8991C128.473 28.119 128.581 27.3938 128.796 26.7245C129.012 26.0552 129.316 25.4764 129.709 24.9889C130.103 24.5014 130.575 24.1195 131.127 23.8436C131.679 23.568 132.288 23.4298 132.953 23.4298C133.498 23.4298 133.956 23.5073 134.326 23.6618C134.696 23.8166 135.032 24.0253 135.335 24.2874V19.805C135.335 19.357 135.702 18.9897 136.15 18.9897H137.648Z" fill="#33495D"/>
</g>
</g>
</svg>
